<?xml version="1.0" encoding="UTF-8" standalone="no"?>
<!-- Created with Inkscape (http://www.inkscape.org/) -->

<svg
   xmlns:dc="http://purl.org/dc/elements/1.1/"
   xmlns:cc="http://creativecommons.org/ns#"
   xmlns:rdf="http://www.w3.org/1999/02/22-rdf-syntax-ns#"
   xmlns:svg="http://www.w3.org/2000/svg"
   xmlns="http://www.w3.org/2000/svg"
   xmlns:xlink="http://www.w3.org/1999/xlink"
   xmlns:sodipodi="http://sodipodi.sourceforge.net/DTD/sodipodi-0.dtd"
   xmlns:inkscape="http://www.inkscape.org/namespaces/inkscape"
   width="32px"
   height="32px"
   id="svg3049"
   version="1.1"
   inkscape:version="0.48.0 r9654"
   sodipodi:docname="New document 2">
  <defs
     id="defs3051">
    <linearGradient
       inkscape:collect="always"
       xlink:href="#linearGradient4671"
       id="linearGradient1475"
       gradientUnits="userSpaceOnUse"
       gradientTransform="matrix(0.562541,0,0,0.567972,-49.942749,-41.612279)"
       x1="150.96111"
       y1="192.35176"
       x2="112.03144"
       y2="137.27299" />
    <linearGradient
       id="linearGradient4671">
      <stop
         style="stop-color:#ffd43b;stop-opacity:1;"
         offset="0"
         id="stop4673" />
      <stop
         style="stop-color:#ffe873;stop-opacity:1"
         offset="1"
         id="stop4675" />
    </linearGradient>
    <linearGradient
       inkscape:collect="always"
       xlink:href="#linearGradient4689"
       id="linearGradient1478"
       gradientUnits="userSpaceOnUse"
       gradientTransform="matrix(0.562541,0,0,0.567972,-9.399749,-5.305317)"
       x1="26.648937"
       y1="20.603781"
       x2="135.66525"
       y2="114.39767" />
    <linearGradient
       id="linearGradient4689">
      <stop
         style="stop-color:#5a9fd4;stop-opacity:1;"
         offset="0"
         id="stop4691" />
      <stop
         style="stop-color:#306998;stop-opacity:1;"
         offset="1"
         id="stop4693" />
    </linearGradient>
    <linearGradient
       y2="114.39767"
       x2="135.66525"
       y1="20.603781"
       x1="26.648937"
       gradientTransform="matrix(0.562541,0,0,0.567972,-49.942749,-41.612279)"
       gradientUnits="userSpaceOnUse"
       id="linearGradient3047"
       xlink:href="#linearGradient4689"
       inkscape:collect="always" />
    <linearGradient
       inkscape:collect="always"
       xlink:href="#linearGradient4689"
       id="linearGradient3092"
       gradientUnits="userSpaceOnUse"
       gradientTransform="matrix(0.562541,0,0,0.567972,-49.942749,-41.612279)"
       x1="26.648937"
       y1="20.603781"
       x2="135.66525"
       y2="114.39767" />
    <linearGradient
       inkscape:collect="always"
       xlink:href="#linearGradient4671"
       id="linearGradient3094"
       gradientUnits="userSpaceOnUse"
       gradientTransform="matrix(0.562541,0,0,0.567972,-49.942749,-41.612279)"
       x1="150.96111"
       y1="192.35176"
       x2="112.03144"
       y2="137.27299" />
  </defs>
  <sodipodi:namedview
     id="base"
     pagecolor="#ffffff"
     bordercolor="#666666"
     borderopacity="1.0"
     inkscape:pageopacity="0.0"
     inkscape:pageshadow="2"
     inkscape:zoom="3.9590209"
     inkscape:cx="56.943868"
     inkscape:cy="-4.4605501"
     inkscape:current-layer="layer1"
     showgrid="true"
     inkscape:grid-bbox="true"
     inkscape:document-units="px"
     inkscape:window-width="939"
     inkscape:window-height="843"
     inkscape:window-x="1848"
     inkscape:window-y="117"
     inkscape:window-maximized="0" />
  <metadata
     id="metadata3054">
    <rdf:RDF>
      <cc:Work
         rdf:about="">
        <dc:format>image/svg+xml</dc:format>
        <dc:type
           rdf:resource="http://purl.org/dc/dcmitype/StillImage" />
        <dc:title></dc:title>
      </cc:Work>
    </rdf:RDF>
  </metadata>
  <g
     id="layer1"
     inkscape:label="Layer 1"
     inkscape:groupmode="layer">
    <g
       id="g3084"
       transform="matrix(0.21590237,0,0,0.21590237,11.546139,10.192568)">
      <path
         id="path1948"
         d="m 19.967156,-29.908989 c -4.583653,0.0213 -8.960939,0.412217 -12.8124995,1.09375 -11.346216,2.004504 -13.406249,6.200102 -13.40625,13.9375 l 0,10.2187495 26.8124995,0 0,3.40625 -26.8124995,0 -10.0625005,0 c -7.792459,0 -14.615758,4.683717 -16.749999,13.5937505 -2.46182,10.212966 -2.571015,16.586023 0,27.25 1.905928,7.937852 6.457543,13.593748 14.249999,13.59375 l 9.2187505,0 0,-12.25 c 0,-8.849902 7.657144,-16.656248 16.75,-16.65625 l 26.7812495,0 c 7.454951,0 13.406253,-6.138164 13.40625,-13.625 l 0,-25.53125 c 0,-7.266339 -6.12998,-12.724778 -13.40625,-13.9375 -4.605987,-0.766726 -9.385097,-1.115049 -13.96875,-1.09375 z m -14.4999995,8.21875 c 2.769547,0 5.0312495,2.298646 5.0312495,5.125 -2e-6,2.816336 -2.2617025,5.09375 -5.0312495,5.09375 -2.779476,-10e-7 -5.03125001,-2.277415 -5.03125001,-5.09375 -10e-7,-2.826353 2.25177401,-5.125 5.03125001,-5.125 z"
         style="fill:url(#linearGradient3092);fill-opacity:1"
         inkscape:connector-curvature="0" />
      <path
         id="path1950"
         d="m 50.685906,-1.2527395 0,11.9062505 c 0,9.230755 -7.825895,16.999999 -16.75,17 l -26.7812495,0 c -7.33583301,0 -13.406249,6.278483 -13.40625,13.625 l 0,25.531247 c 0,7.266344 6.31858799,11.540324 13.40625,13.625004 8.4873305,2.49561 16.6262365,2.94663 26.7812495,0 6.750155,-1.95439 13.406253,-5.88761 13.40625,-13.625004 l 0,-10.218747 -26.78125,0 0,-3.40625 26.78125,0 13.406254,0 c 7.792461,0 10.696251,-5.435408 13.406241,-13.59375 2.79933,-8.398886 2.68022,-16.475776 0,-27.25 C 72.228871,4.5835695 68.550781,-1.2527395 60.74841,-1.2527395 l -10.062504,0 z m -15.0625,64.6562505 c 2.779478,3e-6 5.03125,2.277417 5.03125,5.093747 -2e-6,2.826354 -2.251775,5.125004 -5.03125,5.125004 -2.76955,0 -5.03125,-2.29865 -5.03125,-5.125004 2e-6,-2.81633 2.261697,-5.093747 5.03125,-5.093747 z"
         style="fill:url(#linearGradient3094);fill-opacity:1"
         inkscape:connector-curvature="0" />
    </g>
  </g>
</svg>
